<svg width="1200" height="320" viewBox="0 0 1200 320" fill="none" xmlns="http://www.w3.org/2000/svg">
<rect width="1200" height="320" fill="white"/>
<g clip-path="url(#clip0_2017_12)">
<mask id="mask0_2017_12" style="mask-type:luminance" maskUnits="userSpaceOnUse" x="483" y="33" width="233" height="40">
<path d="M716 33.1924H483V72.9796H716V33.1924Z" fill="white"/>
</mask>
<g mask="url(#mask0_2017_12)">
<g filter="url(#filter0_d_2017_12)">
<path d="M496.96 45.245C497.867 44.658 498.9 44.3436 499.954 44.3334C501.079 44.3147 502.186 44.6366 503.155 45.2638C504.124 45.8909 504.916 46.799 505.445 47.8881L505.911 48.5015C506.273 48.7446 506.665 48.9283 507.076 49.0467C507.092 49.0484 507.109 49.0484 507.126 49.0467L514.116 48.9359C514.222 48.9338 514.326 48.9067 514.421 48.8566C514.517 48.8064 514.601 48.7344 514.669 48.6453C514.737 48.5562 514.786 48.4522 514.814 48.3403C514.842 48.2284 514.848 48.1112 514.831 47.9967C514.25 43.4613 512.077 39.3544 508.774 36.5522C505.471 33.7499 501.302 32.4742 497.153 32.9972C493.006 33.5202 489.208 35.8005 486.571 39.3516C483.935 42.9027 482.667 47.4434 483.04 52.005C483.29 55.9814 484.475 59.6021 486.778 62.4221C487.113 62.831 487.686 63.3165 487.91 63.8085C489.533 67.4142 493.29 72.4663 501.478 71.8657C501.478 71.8657 499.556 70.5878 501.596 68.0704C504.885 67.4755 507.923 65.7699 510.286 63.1914C512.65 60.6129 514.221 57.2899 514.78 53.6855C514.798 53.5689 514.792 53.4494 514.764 53.3354C514.735 53.2215 514.684 53.1158 514.614 53.0259C514.544 52.936 514.457 52.8639 514.359 52.8149C514.261 52.7658 514.154 52.7409 514.046 52.7419L507.161 52.8527H507.111C506.712 52.9815 506.333 53.1746 505.986 53.4256C505.835 53.6386 505.688 53.8367 505.532 54.0433C504.962 55.2999 504.049 56.3302 502.92 56.9897C501.791 57.6495 500.502 57.9059 499.233 57.7233C497.965 57.5406 496.78 56.9278 495.844 55.9706C494.908 55.0133 494.269 53.7595 494.014 52.3841C493.943 51.9803 493.904 51.5706 493.898 51.1595C493.889 50.4643 493.981 49.7721 494.169 49.1085C494.62 47.4793 495.617 46.0985 496.96 45.245ZM535.096 46.2992C533.98 45.5651 532.591 45.1981 530.929 45.1981C529.343 45.1981 528.023 45.5105 526.968 46.1352C525.973 46.7008 525.133 47.5461 524.533 48.5845C523.967 49.5833 523.578 50.6903 523.386 51.8474H523.089V38.7106H517.503V66.0448H523.083V55.8046C523.054 54.8361 523.206 53.8714 523.529 52.9698C523.827 52.2144 524.371 51.6072 525.054 51.266C525.772 50.8854 526.751 50.6952 527.991 50.6952C529.752 50.6952 530.998 51.0416 531.729 51.7345C532.46 52.4274 532.826 53.6343 532.826 55.3553V66.0448H538.406V53.5193C538.428 52.0555 538.148 50.6051 537.587 49.2767C537.047 48.0328 536.18 46.9954 535.096 46.2992ZM556.054 46.2992C554.7 45.5651 552.983 45.1981 550.903 45.1981C548.868 45.1981 547.101 45.558 545.602 46.2779C544.103 46.9978 542.944 48.0045 542.125 49.298C541.3 50.6118 540.871 52.1758 540.898 53.7706V53.8942H546.513V53.7238C546.513 52.5538 546.823 51.7381 547.443 51.2766C548.063 50.8152 549.08 50.5837 550.493 50.5823C551.981 50.5823 553.028 50.8137 553.635 51.2766C554.242 51.7395 554.546 52.6369 554.548 53.9687V54.744L546.55 55.6406C545.397 55.7527 544.268 56.0625 543.202 56.5587C542.395 56.9327 541.699 57.5482 541.195 58.3348C540.733 59.1248 540.5 60.0489 540.525 60.9865C540.525 62.6733 541.095 64.0059 542.235 64.9842C543.376 65.9625 544.95 66.4523 546.96 66.4538C549.042 66.4538 550.725 65.998 552.008 65.0863C553.247 64.2282 554.154 62.8989 554.555 61.3527H554.841V66.0385H560.048V54.0496C560.048 52.2535 559.719 50.6966 559.062 49.3789C558.378 48.0324 557.326 46.9552 556.054 46.2992ZM551.87 61.7191C550.789 62.0197 549.675 62.1572 548.56 62.128C547.74 62.128 547.132 62.0059 546.736 61.7616C546.545 61.647 546.387 61.4746 546.282 61.2648C546.176 61.0548 546.128 60.8165 546.142 60.5776C546.128 60.3689 546.163 60.1597 546.244 59.9706C546.326 59.7812 546.45 59.6182 546.606 59.4978C546.917 59.2648 547.407 59.1229 548.076 59.0719L554.538 58.2646C554.527 59.0363 554.289 59.7836 553.858 60.3944C553.336 61.0499 552.641 61.5125 551.87 61.7191ZM580.172 46.2779C579.057 45.558 577.657 45.1981 575.97 45.1981C574.333 45.1981 572.988 45.5176 571.935 46.1565C570.938 46.7368 570.098 47.5948 569.498 48.6442C568.937 49.6354 568.558 50.7373 568.382 51.8879H568.044V45.6049H562.877V66.0512H568.458V55.7238C568.458 53.9829 568.811 52.7114 569.518 51.9092C570.225 51.1069 571.47 50.7058 573.255 50.7058C574.965 50.7058 576.168 51.0658 576.863 51.7856C577.558 52.5055 577.905 53.6954 577.904 55.3553V66.0448H583.482V53.3149C583.502 51.8911 583.223 50.4815 582.665 49.1958C582.118 47.9716 581.25 46.9552 580.172 46.2779ZM601.13 46.2992C599.784 45.5651 598.067 45.1981 595.979 45.1981C593.945 45.1981 592.179 45.558 590.68 46.2779C589.181 46.9978 588.022 48.0045 587.202 49.298C586.377 50.6114 585.948 52.1757 585.975 53.7706V53.8942H591.591V53.7238C591.591 52.5538 591.901 51.7381 592.521 51.2766C593.141 50.8152 594.158 50.5837 595.571 50.5823C597.058 50.5823 598.106 50.8137 598.713 51.2766C599.32 51.7395 599.623 52.6369 599.623 53.9687V54.744L591.628 55.6406C590.475 55.7527 589.345 56.0625 588.28 56.5587C587.472 56.9321 586.776 57.5478 586.272 58.3348C585.811 59.1248 585.578 60.0489 585.603 60.9865C585.603 62.6733 586.173 64.0059 587.313 64.9842C588.454 65.9625 590.028 66.4523 592.037 66.4538C594.119 66.4538 595.798 65.998 597.076 65.0863C598.316 64.2295 599.224 62.8997 599.623 61.3527H599.922V66.0385H605.13V54.0496C605.13 52.2535 604.802 50.6966 604.146 49.3789C603.459 48.0313 602.405 46.954 601.13 46.2992ZM596.946 61.7191C595.864 62.0199 594.751 62.1574 593.635 62.128C592.819 62.128 592.211 62.0059 591.814 61.7616C591.622 61.6474 591.464 61.4753 591.358 61.2653C591.252 61.0555 591.204 60.8168 591.218 60.5776C591.204 60.3687 591.239 60.1595 591.321 59.9702C591.403 59.7808 591.528 59.618 591.684 59.4978C591.993 59.2657 592.484 59.1229 593.152 59.0719L599.615 58.2646C599.603 59.0361 599.365 59.7827 598.936 60.3944C598.413 61.0504 597.718 61.5131 596.946 61.7191ZM642.507 54.9165L641.02 59.7704H640.647L639.093 54.957L635.142 45.6049H622.535L617.774 53.1935H613.533V38.7106H607.955V66.0448H613.533V58.6608H617.805L622.465 66.0448H629.047L622.353 55.4787L628.954 45.8946L637.928 66.1278C637.761 66.5274 637.491 66.8648 637.152 67.0991C636.804 67.3121 636.282 67.4248 635.598 67.4248H631.014V72.9731H634.061C635.412 72.9991 636.762 72.8416 638.078 72.5046C639.145 72.2195 640.129 71.6446 640.94 70.8327C641.734 70.0304 642.428 68.9223 643.023 67.508L652.252 45.6049H646.039L642.507 54.9165ZM668.411 46.2992C667.059 45.5651 665.342 45.1981 663.26 45.1981C661.226 45.1981 659.459 45.558 657.961 46.2779C656.461 46.9978 655.302 48.0045 654.484 49.298C653.658 50.6114 653.228 52.1757 653.257 53.7706V53.8942H658.871V53.7238C658.871 52.5538 659.181 51.7381 659.801 51.2766C660.421 50.8152 661.438 50.5837 662.851 50.5823C664.339 50.5823 665.386 50.8137 665.993 51.2766C666.6 51.7395 666.905 52.6369 666.906 53.9687V54.744L658.913 55.6406C657.761 55.7527 656.632 56.0625 655.566 56.5587C654.758 56.9321 654.063 57.5478 653.558 58.3348C653.098 59.1248 652.864 60.0489 652.889 60.9865C652.889 62.6733 653.458 64.0059 654.599 64.9842C655.739 65.9625 657.315 66.4523 659.323 66.4538C661.406 66.4538 663.087 65.998 664.363 65.0863C665.603 64.2291 666.51 62.8995 666.911 61.3527H667.21V66.0385H672.417V54.0496C672.417 52.2535 672.088 50.6966 671.431 49.3789C670.743 48.0306 669.687 46.9533 668.411 46.2992ZM664.227 61.7191C663.148 62.0189 662.038 62.1565 660.926 62.128C660.106 62.128 659.498 62.0059 659.103 61.7616C658.912 61.647 658.752 61.4746 658.647 61.2648C658.542 61.0548 658.495 60.8165 658.508 60.5776C658.495 60.3689 658.529 60.1597 658.61 59.9706C658.691 59.7812 658.817 59.6182 658.973 59.4978C659.281 59.2657 659.772 59.1229 660.442 59.0719L666.905 58.2646C666.891 59.0361 666.654 59.7827 666.225 60.3944C665.7 61.0519 665.002 61.5148 664.227 61.7191ZM690.186 38.7106L679.29 66.0448H685.538L687.91 60.0068H700.36L702.722 66.0448H709.118L698.147 38.7106H690.186ZM690.078 54.4906L692.419 48.527L693.943 44.2844H694.353L695.878 48.527L698.208 54.4906H690.078ZM710.421 38.7106H715.999V43.5241H710.421V38.7106ZM710.421 45.6049H715.999V66.0448H710.421V45.6049Z" fill="#EF5126"/>
<mask id="mask1_2017_12" style="mask-type:luminance" maskUnits="userSpaceOnUse" x="482" y="32" width="234" height="41">
<path d="M496.96 45.245C497.867 44.658 498.9 44.3436 499.954 44.3334C501.079 44.3147 502.186 44.6366 503.155 45.2638C504.124 45.8909 504.916 46.799 505.445 47.8881L505.911 48.5015C506.273 48.7446 506.665 48.9283 507.076 49.0467C507.092 49.0484 507.109 49.0484 507.126 49.0467L514.116 48.9359C514.222 48.9338 514.326 48.9067 514.421 48.8566C514.517 48.8064 514.601 48.7344 514.669 48.6453C514.737 48.5562 514.786 48.4522 514.814 48.3403C514.842 48.2284 514.848 48.1112 514.831 47.9967C514.25 43.4613 512.077 39.3544 508.774 36.5522C505.471 33.7499 501.302 32.4742 497.153 32.9972C493.006 33.5202 489.208 35.8005 486.571 39.3516C483.935 42.9027 482.667 47.4434 483.04 52.005C483.29 55.9814 484.475 59.6021 486.778 62.4221C487.113 62.831 487.686 63.3165 487.91 63.8085C489.533 67.4142 493.29 72.4663 501.478 71.8657C501.478 71.8657 499.556 70.5878 501.596 68.0704C504.885 67.4755 507.923 65.7699 510.286 63.1914C512.65 60.6129 514.221 57.2899 514.78 53.6855C514.798 53.5689 514.792 53.4494 514.764 53.3354C514.735 53.2215 514.684 53.1158 514.614 53.0259C514.544 52.936 514.457 52.8639 514.359 52.8149C514.261 52.7658 514.154 52.7409 514.046 52.7419L507.161 52.8527H507.111C506.712 52.9815 506.333 53.1746 505.986 53.4256C505.835 53.6386 505.688 53.8367 505.532 54.0433C504.962 55.2999 504.049 56.3302 502.92 56.9897C501.791 57.6495 500.502 57.9059 499.233 57.7233C497.965 57.5406 496.78 56.9278 495.844 55.9706C494.908 55.0133 494.269 53.7595 494.014 52.3841C493.943 51.9803 493.904 51.5706 493.898 51.1595C493.889 50.4643 493.981 49.7721 494.169 49.1085C494.62 47.4793 495.617 46.0985 496.96 45.245ZM535.096 46.2992C533.98 45.5651 532.591 45.1981 530.929 45.1981C529.343 45.1981 528.023 45.5105 526.968 46.1352C525.973 46.7008 525.133 47.5461 524.533 48.5845C523.967 49.5833 523.578 50.6903 523.386 51.8474H523.089V38.7106H517.503V66.0448H523.083V55.8046C523.054 54.8361 523.206 53.8714 523.529 52.9698C523.827 52.2144 524.371 51.6072 525.054 51.266C525.772 50.8854 526.751 50.6952 527.991 50.6952C529.752 50.6952 530.998 51.0416 531.729 51.7345C532.46 52.4274 532.826 53.6343 532.826 55.3553V66.0448H538.406V53.5193C538.428 52.0555 538.148 50.6051 537.587 49.2767C537.047 48.0328 536.18 46.9954 535.096 46.2992ZM556.054 46.2992C554.7 45.5651 552.983 45.1981 550.903 45.1981C548.868 45.1981 547.101 45.558 545.602 46.2779C544.103 46.9978 542.944 48.0045 542.125 49.298C541.3 50.6118 540.871 52.1758 540.898 53.7706V53.8942H546.513V53.7238C546.513 52.5538 546.823 51.7381 547.443 51.2766C548.063 50.8152 549.08 50.5837 550.493 50.5823C551.981 50.5823 553.028 50.8137 553.635 51.2766C554.242 51.7395 554.546 52.6369 554.548 53.9687V54.744L546.55 55.6406C545.397 55.7527 544.268 56.0625 543.202 56.5587C542.395 56.9327 541.699 57.5482 541.195 58.3348C540.733 59.1248 540.5 60.0489 540.525 60.9865C540.525 62.6733 541.095 64.0059 542.235 64.9842C543.376 65.9625 544.95 66.4523 546.96 66.4538C549.042 66.4538 550.725 65.998 552.008 65.0863C553.247 64.2282 554.154 62.8989 554.555 61.3527H554.841V66.0385H560.048V54.0496C560.048 52.2535 559.719 50.6966 559.062 49.3789C558.378 48.0324 557.326 46.9552 556.054 46.2992ZM551.87 61.7191C550.789 62.0197 549.675 62.1572 548.56 62.128C547.74 62.128 547.132 62.0059 546.736 61.7616C546.545 61.647 546.387 61.4746 546.282 61.2648C546.176 61.0548 546.128 60.8165 546.142 60.5776C546.128 60.3689 546.163 60.1597 546.244 59.9706C546.326 59.7812 546.45 59.6182 546.606 59.4978C546.917 59.2648 547.407 59.1229 548.076 59.0719L554.538 58.2646C554.527 59.0363 554.289 59.7836 553.858 60.3944C553.336 61.0499 552.641 61.5125 551.87 61.7191ZM580.172 46.2779C579.057 45.558 577.657 45.1981 575.97 45.1981C574.333 45.1981 572.988 45.5176 571.935 46.1565C570.938 46.7368 570.098 47.5948 569.498 48.6442C568.937 49.6354 568.558 50.7373 568.382 51.8879H568.044V45.6049H562.877V66.0512H568.458V55.7238C568.458 53.9829 568.811 52.7114 569.518 51.9092C570.225 51.1069 571.47 50.7058 573.255 50.7058C574.965 50.7058 576.168 51.0658 576.863 51.7856C577.558 52.5055 577.905 53.6954 577.904 55.3553V66.0448H583.482V53.3149C583.502 51.8911 583.223 50.4815 582.665 49.1958C582.118 47.9716 581.25 46.9552 580.172 46.2779ZM601.13 46.2992C599.784 45.5651 598.067 45.1981 595.979 45.1981C593.945 45.1981 592.179 45.558 590.68 46.2779C589.181 46.9978 588.022 48.0045 587.202 49.298C586.377 50.6114 585.948 52.1757 585.975 53.7706V53.8942H591.591V53.7238C591.591 52.5538 591.901 51.7381 592.521 51.2766C593.141 50.8152 594.158 50.5837 595.571 50.5823C597.058 50.5823 598.106 50.8137 598.713 51.2766C599.32 51.7395 599.623 52.6369 599.623 53.9687V54.744L591.628 55.6406C590.475 55.7527 589.345 56.0625 588.28 56.5587C587.472 56.9321 586.776 57.5478 586.272 58.3348C585.811 59.1248 585.578 60.0489 585.603 60.9865C585.603 62.6733 586.173 64.0059 587.313 64.9842C588.454 65.9625 590.028 66.4523 592.037 66.4538C594.119 66.4538 595.798 65.998 597.076 65.0863C598.316 64.2295 599.224 62.8997 599.623 61.3527H599.922V66.0385H605.13V54.0496C605.13 52.2535 604.802 50.6966 604.146 49.3789C603.459 48.0313 602.405 46.954 601.13 46.2992ZM596.946 61.7191C595.864 62.0199 594.751 62.1574 593.635 62.128C592.819 62.128 592.211 62.0059 591.814 61.7616C591.622 61.6474 591.464 61.4753 591.358 61.2653C591.252 61.0555 591.204 60.8168 591.218 60.5776C591.204 60.3687 591.239 60.1595 591.321 59.9702C591.403 59.7808 591.528 59.618 591.684 59.4978C591.993 59.2657 592.484 59.1229 593.152 59.0719L599.615 58.2646C599.603 59.0361 599.365 59.7827 598.936 60.3944C598.413 61.0504 597.718 61.5131 596.946 61.7191ZM642.507 54.9165L641.02 59.7704H640.647L639.093 54.957L635.142 45.6049H622.535L617.774 53.1935H613.533V38.7106H607.955V66.0448H613.533V58.6608H617.805L622.465 66.0448H629.047L622.353 55.4787L628.954 45.8946L637.928 66.1278C637.761 66.5274 637.491 66.8648 637.152 67.0991C636.804 67.3121 636.282 67.4248 635.598 67.4248H631.014V72.9731H634.061C635.412 72.9991 636.762 72.8416 638.078 72.5046C639.145 72.2195 640.129 71.6446 640.94 70.8327C641.734 70.0304 642.428 68.9223 643.023 67.508L652.252 45.6049H646.039L642.507 54.9165ZM668.411 46.2992C667.059 45.5651 665.342 45.1981 663.26 45.1981C661.226 45.1981 659.459 45.558 657.961 46.2779C656.461 46.9978 655.302 48.0045 654.484 49.298C653.658 50.6114 653.228 52.1757 653.257 53.7706V53.8942H658.871V53.7238C658.871 52.5538 659.181 51.7381 659.801 51.2766C660.421 50.8152 661.438 50.5837 662.851 50.5823C664.339 50.5823 665.386 50.8137 665.993 51.2766C666.6 51.7395 666.905 52.6369 666.906 53.9687V54.744L658.913 55.6406C657.761 55.7527 656.632 56.0625 655.566 56.5587C654.758 56.9321 654.063 57.5478 653.558 58.3348C653.098 59.1248 652.864 60.0489 652.889 60.9865C652.889 62.6733 653.458 64.0059 654.599 64.9842C655.739 65.9625 657.315 66.4523 659.323 66.4538C661.406 66.4538 663.087 65.998 664.363 65.0863C665.603 64.2291 666.51 62.8995 666.911 61.3527H667.21V66.0385H672.417V54.0496C672.417 52.2535 672.088 50.6966 671.431 49.3789C670.743 48.0306 669.687 46.9533 668.411 46.2992ZM664.227 61.7191C663.148 62.0189 662.038 62.1565 660.926 62.128C660.106 62.128 659.498 62.0059 659.103 61.7616C658.912 61.647 658.752 61.4746 658.647 61.2648C658.542 61.0548 658.495 60.8165 658.508 60.5776C658.495 60.3689 658.529 60.1597 658.61 59.9706C658.691 59.7812 658.817 59.6182 658.973 59.4978C659.281 59.2657 659.772 59.1229 660.442 59.0719L666.905 58.2646C666.891 59.0361 666.654 59.7827 666.225 60.3944C665.7 61.0519 665.002 61.5148 664.227 61.7191ZM690.186 38.7106L679.29 66.0448H685.538L687.91 60.0068H700.36L702.722 66.0448H709.118L698.147 38.7106H690.186ZM690.078 54.4906L692.419 48.527L693.943 44.2844H694.353L695.878 48.527L698.208 54.4906H690.078ZM710.421 38.7106H715.999V43.5241H710.421V38.7106ZM710.421 45.6049H715.999V66.0448H710.421V45.6049Z" fill="white"/>
</mask>
<g mask="url(#mask1_2017_12)">
<path d="M496.96 45.245C497.867 44.658 498.9 44.3436 499.954 44.3334C501.079 44.3147 502.186 44.6366 503.155 45.2638C504.124 45.8909 504.916 46.799 505.445 47.8881L505.911 48.5015C506.273 48.7446 506.665 48.9283 507.076 49.0467C507.092 49.0484 507.109 49.0484 507.126 49.0467L514.116 48.9359C514.222 48.9338 514.326 48.9067 514.421 48.8566C514.517 48.8064 514.601 48.7344 514.669 48.6453C514.737 48.5562 514.786 48.4522 514.814 48.3403C514.842 48.2284 514.848 48.1112 514.831 47.9967C514.25 43.4613 512.077 39.3544 508.774 36.5522C505.471 33.7499 501.302 32.4742 497.153 32.9972C493.006 33.5202 489.208 35.8005 486.571 39.3516C483.935 42.9027 482.667 47.4434 483.04 52.005C483.29 55.9814 484.475 59.6021 486.778 62.4221C487.113 62.831 487.686 63.3165 487.91 63.8085C489.533 67.4142 493.29 72.4663 501.478 71.8657C501.478 71.8657 499.556 70.5878 501.596 68.0704C504.885 67.4755 507.923 65.7699 510.286 63.1914C512.65 60.6129 514.221 57.2899 514.78 53.6855C514.798 53.5689 514.792 53.4494 514.764 53.3354C514.735 53.2215 514.684 53.1158 514.614 53.0259C514.544 52.936 514.457 52.8639 514.359 52.8149C514.261 52.7658 514.154 52.7409 514.046 52.7419L507.161 52.8527H507.111C506.712 52.9815 506.333 53.1746 505.986 53.4256C505.835 53.6386 505.688 53.8367 505.532 54.0433C504.962 55.2999 504.049 56.3302 502.92 56.9897C501.791 57.6495 500.502 57.9059 499.233 57.7233C497.965 57.5406 496.78 56.9278 495.844 55.9706C494.908 55.0133 494.269 53.7595 494.014 52.3841C493.943 51.9803 493.904 51.5706 493.898 51.1595C493.889 50.4643 493.981 49.7721 494.169 49.1085C494.62 47.4793 495.617 46.0985 496.96 45.245ZM535.096 46.2992C533.98 45.5651 532.591 45.1981 530.929 45.1981C529.343 45.1981 528.023 45.5105 526.968 46.1352C525.973 46.7008 525.133 47.5461 524.533 48.5845C523.967 49.5833 523.578 50.6903 523.386 51.8474H523.089V38.7106H517.503V66.0448H523.083V55.8046C523.054 54.8361 523.206 53.8714 523.529 52.9698C523.827 52.2144 524.371 51.6072 525.054 51.266C525.772 50.8854 526.751 50.6952 527.991 50.6952C529.752 50.6952 530.998 51.0416 531.729 51.7345C532.46 52.4274 532.826 53.6343 532.826 55.3553V66.0448H538.406V53.5193C538.428 52.0555 538.148 50.6051 537.587 49.2767C537.047 48.0328 536.18 46.9954 535.096 46.2992ZM556.054 46.2992C554.7 45.5651 552.983 45.1981 550.903 45.1981C548.868 45.1981 547.101 45.558 545.602 46.2779C544.103 46.9978 542.944 48.0045 542.125 49.298C541.3 50.6118 540.871 52.1758 540.898 53.7706V53.8942H546.513V53.7238C546.513 52.5538 546.823 51.7381 547.443 51.2766C548.063 50.8152 549.08 50.5837 550.493 50.5823C551.981 50.5823 553.028 50.8137 553.635 51.2766C554.242 51.7395 554.546 52.6369 554.548 53.9687V54.744L546.55 55.6406C545.397 55.7527 544.268 56.0625 543.202 56.5587C542.395 56.9327 541.699 57.5482 541.195 58.3348C540.733 59.1248 540.5 60.0489 540.525 60.9865C540.525 62.6733 541.095 64.0059 542.235 64.9842C543.376 65.9625 544.95 66.4523 546.96 66.4538C549.042 66.4538 550.725 65.998 552.008 65.0863C553.247 64.2282 554.154 62.8989 554.555 61.3527H554.841V66.0385H560.048V54.0496C560.048 52.2535 559.719 50.6966 559.062 49.3789C558.378 48.0324 557.326 46.9552 556.054 46.2992ZM551.87 61.7191C550.789 62.0197 549.675 62.1572 548.56 62.128C547.74 62.128 547.132 62.0059 546.736 61.7616C546.545 61.647 546.387 61.4746 546.282 61.2648C546.176 61.0548 546.128 60.8165 546.142 60.5776C546.128 60.3689 546.163 60.1597 546.244 59.9706C546.326 59.7812 546.45 59.6182 546.606 59.4978C546.917 59.2648 547.407 59.1229 548.076 59.0719L554.538 58.2646C554.527 59.0363 554.289 59.7836 553.858 60.3944C553.336 61.0499 552.641 61.5125 551.87 61.7191ZM580.172 46.2779C579.057 45.558 577.657 45.1981 575.97 45.1981C574.333 45.1981 572.988 45.5176 571.935 46.1565C570.938 46.7368 570.098 47.5948 569.498 48.6442C568.937 49.6354 568.558 50.7373 568.382 51.8879H568.044V45.6049H562.877V66.0512H568.458V55.7238C568.458 53.9829 568.811 52.7114 569.518 51.9092C570.225 51.1069 571.47 50.7058 573.255 50.7058C574.965 50.7058 576.168 51.0658 576.863 51.7856C577.558 52.5055 577.905 53.6954 577.904 55.3553V66.0448H583.482V53.3149C583.502 51.8911 583.223 50.4815 582.665 49.1958C582.118 47.9716 581.25 46.9552 580.172 46.2779ZM601.13 46.2992C599.784 45.5651 598.067 45.1981 595.979 45.1981C593.945 45.1981 592.179 45.558 590.68 46.2779C589.181 46.9978 588.022 48.0045 587.202 49.298C586.377 50.6114 585.948 52.1757 585.975 53.7706V53.8942H591.591V53.7238C591.591 52.5538 591.901 51.7381 592.521 51.2766C593.141 50.8152 594.158 50.5837 595.571 50.5823C597.058 50.5823 598.106 50.8137 598.713 51.2766C599.32 51.7395 599.623 52.6369 599.623 53.9687V54.744L591.628 55.6406C590.475 55.7527 589.345 56.0625 588.28 56.5587C587.472 56.9321 586.776 57.5478 586.272 58.3348C585.811 59.1248 585.578 60.0489 585.603 60.9865C585.603 62.6733 586.173 64.0059 587.313 64.9842C588.454 65.9625 590.028 66.4523 592.037 66.4538C594.119 66.4538 595.798 65.998 597.076 65.0863C598.316 64.2295 599.224 62.8997 599.623 61.3527H599.922V66.0385H605.13V54.0496C605.13 52.2535 604.802 50.6966 604.146 49.3789C603.459 48.0313 602.405 46.954 601.13 46.2992ZM596.946 61.7191C595.864 62.0199 594.751 62.1574 593.635 62.128C592.819 62.128 592.211 62.0059 591.814 61.7616C591.622 61.6474 591.464 61.4753 591.358 61.2653C591.252 61.0555 591.204 60.8168 591.218 60.5776C591.204 60.3687 591.239 60.1595 591.321 59.9702C591.403 59.7808 591.528 59.618 591.684 59.4978C591.993 59.2657 592.484 59.1229 593.152 59.0719L599.615 58.2646C599.603 59.0361 599.365 59.7827 598.936 60.3944C598.413 61.0504 597.718 61.5131 596.946 61.7191ZM642.507 54.9165L641.02 59.7704H640.647L639.093 54.957L635.142 45.6049H622.535L617.774 53.1935H613.533V38.7106H607.955V66.0448H613.533V58.6608H617.805L622.465 66.0448H629.047L622.353 55.4787L628.954 45.8946L637.928 66.1278C637.761 66.5274 637.491 66.8648 637.152 67.0991C636.804 67.3121 636.282 67.4248 635.598 67.4248H631.014V72.9731H634.061C635.412 72.9991 636.762 72.8416 638.078 72.5046C639.145 72.2195 640.129 71.6446 640.94 70.8327C641.734 70.0304 642.428 68.9223 643.023 67.508L652.252 45.6049H646.039L642.507 54.9165ZM668.411 46.2992C667.059 45.5651 665.342 45.1981 663.26 45.1981C661.226 45.1981 659.459 45.558 657.961 46.2779C656.461 46.9978 655.302 48.0045 654.484 49.298C653.658 50.6114 653.228 52.1757 653.257 53.7706V53.8942H658.871V53.7238C658.871 52.5538 659.181 51.7381 659.801 51.2766C660.421 50.8152 661.438 50.5837 662.851 50.5823C664.339 50.5823 665.386 50.8137 665.993 51.2766C666.6 51.7395 666.905 52.6369 666.906 53.9687V54.744L658.913 55.6406C657.761 55.7527 656.632 56.0625 655.566 56.5587C654.758 56.9321 654.063 57.5478 653.558 58.3348C653.098 59.1248 652.864 60.0489 652.889 60.9865C652.889 62.6733 653.458 64.0059 654.599 64.9842C655.739 65.9625 657.315 66.4523 659.323 66.4538C661.406 66.4538 663.087 65.998 664.363 65.0863C665.603 64.2291 666.51 62.8995 666.911 61.3527H667.21V66.0385H672.417V54.0496C672.417 52.2535 672.088 50.6966 671.431 49.3789C670.743 48.0306 669.687 46.9533 668.411 46.2992ZM664.227 61.7191C663.148 62.0189 662.038 62.1565 660.926 62.128C660.106 62.128 659.498 62.0059 659.103 61.7616C658.912 61.647 658.752 61.4746 658.647 61.2648C658.542 61.0548 658.495 60.8165 658.508 60.5776C658.495 60.3689 658.529 60.1597 658.61 59.9706C658.691 59.7812 658.817 59.6182 658.973 59.4978C659.281 59.2657 659.772 59.1229 660.442 59.0719L666.905 58.2646C666.891 59.0361 666.654 59.7827 666.225 60.3944C665.7 61.0519 665.002 61.5148 664.227 61.7191ZM690.186 38.7106L679.29 66.0448H685.538L687.91 60.0068H700.36L702.722 66.0448H709.118L698.147 38.7106H690.186ZM690.078 54.4906L692.419 48.527L693.943 44.2844H694.353L695.878 48.527L698.208 54.4906H690.078ZM710.421 38.7106H715.999V43.5241H710.421V38.7106ZM710.421 45.6049H715.999V66.0448H710.421V45.6049Z" stroke="#EF5126" stroke-width="2"/>
</g>
</g>
<path d="M715.915 38.6382H709.815V66.085H715.915V38.6382Z" fill="#EF5126" stroke="#EF5126"/>
</g>
</g>
<g filter="url(#filter1_d_2017_12)">
<path d="M313.857 136.818H318.344L325.183 148.72H325.464L332.304 136.818H336.791L327.293 152.722V163H323.355V152.722L313.857 136.818ZM345.251 163.396C343.41 163.396 341.804 162.974 340.431 162.131C339.059 161.287 337.994 160.107 337.235 158.589C336.477 157.072 336.098 155.3 336.098 153.271C336.098 151.234 336.477 149.453 337.235 147.928C337.994 146.402 339.059 145.217 340.431 144.374C341.804 143.53 343.41 143.108 345.251 143.108C347.092 143.108 348.699 143.53 350.071 144.374C351.443 145.217 352.508 146.402 353.267 147.928C354.025 149.453 354.404 151.234 354.404 153.271C354.404 155.3 354.025 157.072 353.267 158.589C352.508 160.107 351.443 161.287 350.071 162.131C348.699 162.974 347.092 163.396 345.251 163.396ZM345.264 160.188C346.457 160.188 347.446 159.872 348.23 159.241C349.014 158.611 349.593 157.771 349.968 156.723C350.352 155.675 350.544 154.52 350.544 153.259C350.544 152.006 350.352 150.855 349.968 149.807C349.593 148.75 349.014 147.902 348.23 147.263C347.446 146.624 346.457 146.304 345.264 146.304C344.062 146.304 343.065 146.624 342.272 147.263C341.488 147.902 340.904 148.75 340.521 149.807C340.146 150.855 339.958 152.006 339.958 153.259C339.958 154.52 340.146 155.675 340.521 156.723C340.904 157.771 341.488 158.611 342.272 159.241C343.065 159.872 344.062 160.188 345.264 160.188ZM371.11 154.857V143.364H374.945V163H371.187V159.599H370.982C370.531 160.648 369.806 161.521 368.809 162.22C367.82 162.911 366.589 163.256 365.114 163.256C363.853 163.256 362.737 162.979 361.765 162.425C360.802 161.862 360.043 161.031 359.489 159.932C358.944 158.832 358.671 157.473 358.671 155.854V143.364H362.494V155.393C362.494 156.732 362.864 157.797 363.606 158.589C364.347 159.382 365.31 159.778 366.495 159.778C367.211 159.778 367.923 159.599 368.63 159.241C369.346 158.884 369.938 158.342 370.407 157.618C370.884 156.893 371.119 155.973 371.11 154.857ZM380.081 163V143.364H383.776V146.483H383.98C384.338 145.426 384.969 144.595 385.873 143.99C386.784 143.376 387.816 143.07 388.966 143.07C389.205 143.07 389.486 143.078 389.81 143.095C390.142 143.112 390.402 143.134 390.59 143.159V146.815C390.436 146.773 390.164 146.726 389.772 146.675C389.38 146.615 388.988 146.585 388.596 146.585C387.692 146.585 386.887 146.777 386.179 147.161C385.48 147.536 384.926 148.06 384.517 148.733C384.108 149.398 383.904 150.156 383.904 151.009V163H380.081ZM403.732 163V136.818H407.682V159.599H419.546V163H403.732ZM429.46 163.435C428.216 163.435 427.091 163.205 426.085 162.744C425.079 162.276 424.282 161.598 423.694 160.712C423.115 159.825 422.825 158.739 422.825 157.452C422.825 156.344 423.038 155.432 423.464 154.716C423.89 154 424.466 153.433 425.19 153.016C425.914 152.598 426.724 152.283 427.619 152.07C428.514 151.857 429.426 151.695 430.355 151.584C431.531 151.447 432.485 151.337 433.218 151.251C433.951 151.158 434.484 151.009 434.816 150.804C435.149 150.599 435.315 150.267 435.315 149.807V149.717C435.315 148.601 435 147.736 434.369 147.122C433.747 146.509 432.818 146.202 431.582 146.202C430.295 146.202 429.281 146.487 428.539 147.058C427.806 147.621 427.299 148.247 427.018 148.938L423.426 148.119C423.852 146.926 424.474 145.963 425.292 145.23C426.119 144.489 427.069 143.952 428.143 143.619C429.217 143.278 430.346 143.108 431.531 143.108C432.315 143.108 433.146 143.202 434.024 143.389C434.91 143.568 435.737 143.901 436.504 144.386C437.279 144.872 437.914 145.567 438.409 146.47C438.903 147.365 439.15 148.528 439.15 149.96V163H435.417V160.315H435.264C435.017 160.81 434.646 161.295 434.152 161.773C433.657 162.25 433.022 162.646 432.247 162.962C431.471 163.277 430.542 163.435 429.46 163.435ZM430.291 160.366C431.348 160.366 432.251 160.158 433.001 159.74C433.76 159.322 434.335 158.777 434.727 158.104C435.127 157.422 435.328 156.693 435.328 155.918V153.386C435.191 153.523 434.927 153.651 434.535 153.77C434.152 153.881 433.713 153.979 433.218 154.064C432.724 154.141 432.243 154.213 431.774 154.281C431.305 154.341 430.913 154.392 430.598 154.435C429.856 154.528 429.179 154.686 428.565 154.908C427.96 155.129 427.474 155.449 427.108 155.866C426.75 156.276 426.571 156.821 426.571 157.503C426.571 158.449 426.92 159.165 427.619 159.651C428.318 160.128 429.208 160.366 430.291 160.366ZM458.956 148.158L455.491 148.771C455.347 148.328 455.116 147.906 454.801 147.506C454.494 147.105 454.077 146.777 453.548 146.521C453.02 146.266 452.359 146.138 451.567 146.138C450.484 146.138 449.581 146.381 448.857 146.866C448.132 147.344 447.77 147.962 447.77 148.72C447.77 149.376 448.013 149.905 448.499 150.305C448.984 150.706 449.768 151.034 450.851 151.29L453.97 152.006C455.777 152.423 457.124 153.067 458.01 153.936C458.896 154.805 459.339 155.935 459.339 157.324C459.339 158.5 458.999 159.548 458.317 160.469C457.643 161.381 456.702 162.097 455.491 162.616C454.29 163.136 452.896 163.396 451.311 163.396C449.112 163.396 447.318 162.928 445.929 161.99C444.54 161.044 443.688 159.702 443.372 157.963L447.067 157.401C447.297 158.364 447.77 159.092 448.486 159.587C449.202 160.072 450.135 160.315 451.286 160.315C452.538 160.315 453.54 160.055 454.29 159.536C455.04 159.007 455.415 158.364 455.415 157.605C455.415 156.991 455.185 156.476 454.724 156.058C454.273 155.641 453.578 155.325 452.641 155.112L449.317 154.384C447.484 153.966 446.129 153.301 445.251 152.389C444.382 151.477 443.947 150.322 443.947 148.925C443.947 147.766 444.271 146.751 444.919 145.882C445.567 145.013 446.462 144.335 447.604 143.849C448.746 143.355 450.054 143.108 451.528 143.108C453.651 143.108 455.321 143.568 456.54 144.489C457.759 145.401 458.564 146.624 458.956 148.158ZM472.708 143.364V146.432H461.983V143.364H472.708ZM464.859 138.659H468.681V157.234C468.681 157.976 468.792 158.534 469.014 158.909C469.235 159.276 469.521 159.527 469.87 159.663C470.228 159.791 470.616 159.855 471.034 159.855C471.341 159.855 471.609 159.834 471.839 159.791C472.069 159.749 472.248 159.714 472.376 159.689L473.066 162.847C472.845 162.932 472.529 163.017 472.12 163.102C471.711 163.196 471.2 163.247 470.586 163.256C469.581 163.273 468.643 163.094 467.774 162.719C466.904 162.344 466.201 161.764 465.664 160.98C465.127 160.196 464.859 159.212 464.859 158.027V138.659ZM486.464 163V143.364H490.133V146.56H490.376C490.785 145.477 491.454 144.634 492.383 144.028C493.312 143.415 494.424 143.108 495.72 143.108C497.032 143.108 498.132 143.415 499.018 144.028C499.913 144.642 500.574 145.486 501 146.56H501.204C501.673 145.511 502.419 144.676 503.441 144.054C504.464 143.423 505.683 143.108 507.098 143.108C508.879 143.108 510.332 143.666 511.457 144.783C512.591 145.899 513.157 147.582 513.157 149.832V163H509.335V150.19C509.335 148.861 508.973 147.898 508.248 147.301C507.524 146.705 506.659 146.406 505.653 146.406C504.409 146.406 503.441 146.79 502.751 147.557C502.061 148.315 501.716 149.291 501.716 150.484V163H497.906V149.947C497.906 148.882 497.574 148.026 496.909 147.378C496.244 146.73 495.379 146.406 494.314 146.406C493.589 146.406 492.92 146.598 492.306 146.982C491.701 147.357 491.211 147.881 490.836 148.554C490.47 149.227 490.287 150.007 490.287 150.893V163H486.464ZM518.281 163V143.364H522.103V163H518.281ZM520.211 140.334C519.546 140.334 518.975 140.112 518.498 139.669C518.029 139.217 517.795 138.68 517.795 138.058C517.795 137.428 518.029 136.891 518.498 136.447C518.975 135.996 519.546 135.77 520.211 135.77C520.876 135.77 521.442 135.996 521.911 136.447C522.388 136.891 522.627 137.428 522.627 138.058C522.627 138.68 522.388 139.217 521.911 139.669C521.442 140.112 520.876 140.334 520.211 140.334ZM531.068 151.341V163H527.245V143.364H530.914V146.56H531.157C531.609 145.52 532.316 144.685 533.279 144.054C534.251 143.423 535.474 143.108 536.949 143.108C538.287 143.108 539.458 143.389 540.464 143.952C541.47 144.506 542.25 145.332 542.804 146.432C543.358 147.531 543.635 148.891 543.635 150.51V163H539.812V150.97C539.812 149.547 539.441 148.435 538.7 147.634C537.958 146.824 536.94 146.419 535.645 146.419C534.758 146.419 533.97 146.611 533.279 146.994C532.598 147.378 532.056 147.94 531.656 148.682C531.264 149.415 531.068 150.301 531.068 151.341ZM561.2 154.857V143.364H565.035V163H561.277V159.599H561.072C560.62 160.648 559.896 161.521 558.899 162.22C557.91 162.911 556.679 163.256 555.204 163.256C553.943 163.256 552.826 162.979 551.855 162.425C550.892 161.862 550.133 161.031 549.579 159.932C549.034 158.832 548.761 157.473 548.761 155.854V143.364H552.583V155.393C552.583 156.732 552.954 157.797 553.696 158.589C554.437 159.382 555.4 159.778 556.585 159.778C557.301 159.778 558.012 159.599 558.72 159.241C559.436 158.884 560.028 158.342 560.497 157.618C560.974 156.893 561.208 155.973 561.2 154.857ZM579.337 143.364V146.432H568.612V143.364H579.337ZM571.488 138.659H575.31V157.234C575.31 157.976 575.421 158.534 575.643 158.909C575.864 159.276 576.15 159.527 576.499 159.663C576.857 159.791 577.245 159.855 577.663 159.855C577.969 159.855 578.238 159.834 578.468 159.791C578.698 159.749 578.877 159.714 579.005 159.689L579.695 162.847C579.474 162.932 579.158 163.017 578.749 163.102C578.34 163.196 577.829 163.247 577.215 163.256C576.21 163.273 575.272 163.094 574.403 162.719C573.533 162.344 572.83 161.764 572.293 160.98C571.756 160.196 571.488 159.212 571.488 158.027V138.659ZM591.818 163.396C589.883 163.396 588.217 162.983 586.819 162.156C585.43 161.321 584.356 160.149 583.598 158.641C582.848 157.124 582.473 155.347 582.473 153.31C582.473 151.298 582.848 149.526 583.598 147.991C584.356 146.457 585.413 145.26 586.768 144.399C588.132 143.538 589.725 143.108 591.549 143.108C592.657 143.108 593.731 143.291 594.771 143.658C595.811 144.024 596.744 144.599 597.571 145.384C598.397 146.168 599.049 147.186 599.527 148.439C600.004 149.683 600.243 151.196 600.243 152.977V154.332H584.633V151.469H596.497C596.497 150.463 596.292 149.572 595.883 148.797C595.474 148.013 594.899 147.395 594.157 146.943C593.424 146.491 592.564 146.266 591.575 146.266C590.501 146.266 589.564 146.53 588.762 147.058C587.97 147.578 587.356 148.26 586.922 149.104C586.495 149.939 586.282 150.847 586.282 151.827V154.064C586.282 155.376 586.512 156.493 586.973 157.413C587.441 158.334 588.093 159.037 588.929 159.523C589.764 160 590.74 160.239 591.856 160.239C592.581 160.239 593.241 160.136 593.838 159.932C594.434 159.719 594.95 159.403 595.385 158.986C595.819 158.568 596.152 158.053 596.382 157.439L600 158.091C599.71 159.156 599.19 160.089 598.44 160.891C597.699 161.683 596.765 162.301 595.64 162.744C594.524 163.179 593.25 163.396 591.818 163.396ZM623.845 163V136.818H633.178C635.214 136.818 636.902 137.189 638.24 137.93C639.578 138.672 640.58 139.686 641.244 140.973C641.909 142.251 642.241 143.692 642.241 145.294C642.241 146.905 641.905 148.354 641.232 149.641C640.567 150.919 639.561 151.933 638.214 152.683C636.876 153.425 635.193 153.795 633.165 153.795H626.747V150.446H632.807C634.094 150.446 635.138 150.224 635.939 149.781C636.74 149.33 637.328 148.716 637.703 147.94C638.078 147.165 638.266 146.283 638.266 145.294C638.266 144.305 638.078 143.428 637.703 142.661C637.328 141.893 636.736 141.293 635.926 140.858C635.125 140.423 634.068 140.206 632.756 140.206H627.795V163H623.845ZM646.566 163V143.364H650.26V146.483H650.465C650.823 145.426 651.453 144.595 652.357 143.99C653.269 143.376 654.3 143.07 655.451 143.07C655.689 143.07 655.971 143.078 656.294 143.095C656.627 143.112 656.887 143.134 657.074 143.159V146.815C656.921 146.773 656.648 146.726 656.256 146.675C655.864 146.615 655.472 146.585 655.08 146.585C654.176 146.585 653.371 146.777 652.664 147.161C651.965 147.536 651.411 148.06 651.002 148.733C650.593 149.398 650.388 150.156 650.388 151.009V163H646.566ZM668.142 163.396C666.207 163.396 664.541 162.983 663.143 162.156C661.754 161.321 660.68 160.149 659.922 158.641C659.172 157.124 658.797 155.347 658.797 153.31C658.797 151.298 659.172 149.526 659.922 147.991C660.68 146.457 661.737 145.26 663.092 144.399C664.456 143.538 666.05 143.108 667.874 143.108C668.982 143.108 670.055 143.291 671.095 143.658C672.135 144.024 673.068 144.599 673.895 145.384C674.722 146.168 675.374 147.186 675.851 148.439C676.328 149.683 676.567 151.196 676.567 152.977V154.332H660.957V151.469H672.821C672.821 150.463 672.616 149.572 672.207 148.797C671.798 148.013 671.223 147.395 670.482 146.943C669.749 146.491 668.888 146.266 667.899 146.266C666.825 146.266 665.888 146.53 665.087 147.058C664.294 147.578 663.68 148.26 663.246 149.104C662.82 149.939 662.607 150.847 662.607 151.827V154.064C662.607 155.376 662.837 156.493 663.297 157.413C663.766 158.334 664.418 159.037 665.253 159.523C666.088 160 667.064 160.239 668.18 160.239C668.905 160.239 669.565 160.136 670.162 159.932C670.759 159.719 671.274 159.403 671.709 158.986C672.143 158.568 672.476 158.053 672.706 157.439L676.324 158.091C676.034 159.156 675.514 160.089 674.764 160.891C674.023 161.683 673.089 162.301 671.964 162.744C670.848 163.179 669.574 163.396 668.142 163.396ZM680.808 170.364V143.364H684.541V146.547H684.86C685.082 146.138 685.402 145.665 685.819 145.128C686.237 144.591 686.816 144.122 687.558 143.722C688.299 143.312 689.279 143.108 690.498 143.108C692.083 143.108 693.498 143.509 694.743 144.31C695.987 145.111 696.963 146.266 697.67 147.774C698.386 149.283 698.744 151.098 698.744 153.22C698.744 155.342 698.39 157.162 697.683 158.679C696.975 160.187 696.004 161.351 694.768 162.169C693.532 162.979 692.122 163.384 690.537 163.384C689.343 163.384 688.368 163.183 687.609 162.783C686.859 162.382 686.271 161.913 685.845 161.376C685.419 160.839 685.091 160.362 684.86 159.945H684.63V170.364H680.808ZM684.554 153.182C684.554 154.562 684.754 155.773 685.154 156.812C685.555 157.852 686.135 158.666 686.893 159.254C687.652 159.834 688.581 160.124 689.68 160.124C690.822 160.124 691.777 159.821 692.544 159.216C693.311 158.602 693.89 157.771 694.282 156.723C694.683 155.675 694.883 154.494 694.883 153.182C694.883 151.886 694.687 150.723 694.295 149.692C693.912 148.661 693.332 147.847 692.556 147.25C691.789 146.653 690.831 146.355 689.68 146.355C688.572 146.355 687.635 146.641 686.868 147.212C686.109 147.783 685.534 148.58 685.142 149.602C684.75 150.625 684.554 151.818 684.554 153.182ZM734.607 145.332H730.618C730.464 144.48 730.179 143.73 729.761 143.082C729.344 142.435 728.832 141.885 728.227 141.433C727.622 140.982 726.945 140.641 726.195 140.411C725.453 140.18 724.665 140.065 723.83 140.065C722.321 140.065 720.97 140.445 719.777 141.203C718.592 141.962 717.655 143.074 716.964 144.54C716.283 146.006 715.942 147.795 715.942 149.909C715.942 152.04 716.283 153.838 716.964 155.304C717.655 156.77 718.597 157.878 719.79 158.628C720.983 159.378 722.325 159.753 723.817 159.753C724.643 159.753 725.428 159.642 726.169 159.42C726.919 159.19 727.597 158.854 728.202 158.411C728.807 157.967 729.318 157.426 729.736 156.787C730.162 156.139 730.456 155.398 730.618 154.562L734.607 154.575C734.393 155.862 733.98 157.047 733.366 158.129C732.761 159.203 731.982 160.132 731.027 160.916C730.081 161.692 728.999 162.293 727.78 162.719C726.561 163.145 725.232 163.358 723.791 163.358C721.524 163.358 719.504 162.821 717.732 161.747C715.959 160.665 714.561 159.118 713.538 157.107C712.524 155.095 712.017 152.696 712.017 149.909C712.017 147.114 712.528 144.714 713.551 142.712C714.574 140.7 715.972 139.158 717.744 138.084C719.517 137.001 721.533 136.46 723.791 136.46C725.18 136.46 726.476 136.661 727.678 137.061C728.888 137.453 729.974 138.033 730.938 138.8C731.901 139.558 732.697 140.487 733.328 141.587C733.959 142.678 734.385 143.926 734.607 145.332ZM747.298 163.396C745.457 163.396 743.85 162.974 742.478 162.131C741.106 161.287 740.041 160.107 739.282 158.589C738.524 157.072 738.145 155.3 738.145 153.271C738.145 151.234 738.524 149.453 739.282 147.928C740.041 146.402 741.106 145.217 742.478 144.374C743.85 143.53 745.457 143.108 747.298 143.108C749.139 143.108 750.745 143.53 752.118 144.374C753.49 145.217 754.555 146.402 755.314 147.928C756.072 149.453 756.451 151.234 756.451 153.271C756.451 155.3 756.072 157.072 755.314 158.589C754.555 160.107 753.49 161.287 752.118 162.131C750.745 162.974 749.139 163.396 747.298 163.396ZM747.311 160.188C748.504 160.188 749.493 159.872 750.277 159.241C751.061 158.611 751.64 157.771 752.015 156.723C752.399 155.675 752.591 154.52 752.591 153.259C752.591 152.006 752.399 150.855 752.015 149.807C751.64 148.75 751.061 147.902 750.277 147.263C749.493 146.624 748.504 146.304 747.311 146.304C746.109 146.304 745.112 146.624 744.319 147.263C743.535 147.902 742.951 148.75 742.568 149.807C742.193 150.855 742.005 152.006 742.005 153.259C742.005 154.52 742.193 155.675 742.568 156.723C742.951 157.771 743.535 158.611 744.319 159.241C745.112 159.872 746.109 160.188 747.311 160.188ZM760.718 163V143.364H764.387V146.56H764.63C765.039 145.477 765.708 144.634 766.637 144.028C767.566 143.415 768.678 143.108 769.974 143.108C771.286 143.108 772.386 143.415 773.272 144.028C774.167 144.642 774.827 145.486 775.254 146.56H775.458C775.927 145.511 776.673 144.676 777.695 144.054C778.718 143.423 779.937 143.108 781.352 143.108C783.133 143.108 784.586 143.666 785.711 144.783C786.844 145.899 787.411 147.582 787.411 149.832V163H783.589V150.19C783.589 148.861 783.227 147.898 782.502 147.301C781.778 146.705 780.913 146.406 779.907 146.406C778.663 146.406 777.695 146.79 777.005 147.557C776.315 148.315 775.969 149.291 775.969 150.484V163H772.16V149.947C772.16 148.882 771.827 148.026 771.163 147.378C770.498 146.73 769.633 146.406 768.567 146.406C767.843 146.406 767.174 146.598 766.56 146.982C765.955 147.357 765.465 147.881 765.09 148.554C764.724 149.227 764.54 150.007 764.54 150.893V163H760.718ZM792.534 170.364V143.364H796.267V146.547H796.587C796.809 146.138 797.128 145.665 797.546 145.128C797.963 144.591 798.543 144.122 799.284 143.722C800.026 143.312 801.006 143.108 802.225 143.108C803.81 143.108 805.225 143.509 806.469 144.31C807.713 145.111 808.689 146.266 809.397 147.774C810.113 149.283 810.471 151.098 810.471 153.22C810.471 155.342 810.117 157.162 809.409 158.679C808.702 160.187 807.73 161.351 806.495 162.169C805.259 162.979 803.848 163.384 802.263 163.384C801.07 163.384 800.094 163.183 799.336 162.783C798.586 162.382 797.998 161.913 797.571 161.376C797.145 160.839 796.817 160.362 796.587 159.945H796.357V170.364H792.534ZM796.28 153.182C796.28 154.562 796.48 155.773 796.881 156.812C797.282 157.852 797.861 158.666 798.62 159.254C799.378 159.834 800.307 160.124 801.407 160.124C802.549 160.124 803.503 159.821 804.27 159.216C805.037 158.602 805.617 157.771 806.009 156.723C806.409 155.675 806.61 154.494 806.61 153.182C806.61 151.886 806.414 150.723 806.022 149.692C805.638 148.661 805.059 147.847 804.283 147.25C803.516 146.653 802.557 146.355 801.407 146.355C800.299 146.355 799.361 146.641 798.594 147.212C797.836 147.783 797.26 148.58 796.868 149.602C796.476 150.625 796.28 151.818 796.28 153.182ZM820.468 163.435C819.223 163.435 818.098 163.205 817.093 162.744C816.087 162.276 815.29 161.598 814.702 160.712C814.123 159.825 813.833 158.739 813.833 157.452C813.833 156.344 814.046 155.432 814.472 154.716C814.898 154 815.473 153.433 816.198 153.016C816.922 152.598 817.732 152.283 818.627 152.07C819.522 151.857 820.434 151.695 821.363 151.584C822.539 151.447 823.493 151.337 824.226 151.251C824.959 151.158 825.492 151.009 825.824 150.804C826.157 150.599 826.323 150.267 826.323 149.807V149.717C826.323 148.601 826.007 147.736 825.377 147.122C824.755 146.509 823.826 146.202 822.59 146.202C821.303 146.202 820.289 146.487 819.547 147.058C818.814 147.621 818.307 148.247 818.026 148.938L814.434 148.119C814.86 146.926 815.482 145.963 816.3 145.23C817.127 144.489 818.077 143.952 819.151 143.619C820.225 143.278 821.354 143.108 822.539 143.108C823.323 143.108 824.154 143.202 825.032 143.389C825.918 143.568 826.745 143.901 827.512 144.386C828.287 144.872 828.922 145.567 829.417 146.47C829.911 147.365 830.158 148.528 830.158 149.96V163H826.425V160.315H826.272C826.025 160.81 825.654 161.295 825.159 161.773C824.665 162.25 824.03 162.646 823.255 162.962C822.479 163.277 821.55 163.435 820.468 163.435ZM821.299 160.366C822.355 160.366 823.259 160.158 824.009 159.74C824.767 159.322 825.343 158.777 825.735 158.104C826.135 157.422 826.336 156.693 826.336 155.918V153.386C826.199 153.523 825.935 153.651 825.543 153.77C825.159 153.881 824.721 153.979 824.226 154.064C823.732 154.141 823.25 154.213 822.782 154.281C822.313 154.341 821.921 154.392 821.605 154.435C820.864 154.528 820.186 154.686 819.573 154.908C818.968 155.129 818.482 155.449 818.115 155.866C817.757 156.276 817.578 156.821 817.578 157.503C817.578 158.449 817.928 159.165 818.627 159.651C819.326 160.128 820.216 160.366 821.299 160.366ZM839.072 151.341V163H835.249V143.364H838.918V146.56H839.161C839.613 145.52 840.32 144.685 841.283 144.054C842.255 143.423 843.478 143.108 844.952 143.108C846.29 143.108 847.462 143.389 848.468 143.952C849.474 144.506 850.254 145.332 850.808 146.432C851.362 147.531 851.638 148.891 851.638 150.51V163H847.816V150.97C847.816 149.547 847.445 148.435 846.704 147.634C845.962 146.824 844.944 146.419 843.648 146.419C842.762 146.419 841.974 146.611 841.283 146.994C840.602 147.378 840.06 147.94 839.66 148.682C839.268 149.415 839.072 150.301 839.072 151.341ZM856.765 163V143.364H860.587V163H856.765ZM858.695 140.334C858.031 140.334 857.46 140.112 856.982 139.669C856.513 139.217 856.279 138.68 856.279 138.058C856.279 137.428 856.513 136.891 856.982 136.447C857.46 135.996 858.031 135.77 858.695 135.77C859.36 135.77 859.927 135.996 860.396 136.447C860.873 136.891 861.112 137.428 861.112 138.058C861.112 138.68 860.873 139.217 860.396 139.669C859.927 140.112 859.36 140.334 858.695 140.334ZM874.001 163.396C872.16 163.396 870.554 162.974 869.181 162.131C867.809 161.287 866.744 160.107 865.985 158.589C865.227 157.072 864.848 155.3 864.848 153.271C864.848 151.234 865.227 149.453 865.985 147.928C866.744 146.402 867.809 145.217 869.181 144.374C870.554 143.53 872.16 143.108 874.001 143.108C875.842 143.108 877.449 143.53 878.821 144.374C880.193 145.217 881.258 146.402 882.017 147.928C882.775 149.453 883.154 151.234 883.154 153.271C883.154 155.3 882.775 157.072 882.017 158.589C881.258 160.107 880.193 161.287 878.821 162.131C877.449 162.974 875.842 163.396 874.001 163.396ZM874.014 160.188C875.207 160.188 876.196 159.872 876.98 159.241C877.764 158.611 878.343 157.771 878.718 156.723C879.102 155.675 879.294 154.52 879.294 153.259C879.294 152.006 879.102 150.855 878.718 149.807C878.343 148.75 877.764 147.902 876.98 147.263C876.196 146.624 875.207 146.304 874.014 146.304C872.812 146.304 871.815 146.624 871.022 147.263C870.238 147.902 869.654 148.75 869.271 149.807C868.896 150.855 868.708 152.006 868.708 153.259C868.708 154.52 868.896 155.675 869.271 156.723C869.654 157.771 870.238 158.611 871.022 159.241C871.815 159.872 872.812 160.188 874.014 160.188ZM891.244 151.341V163H887.421V143.364H891.09V146.56H891.333C891.785 145.52 892.492 144.685 893.455 144.054C894.427 143.423 895.65 143.108 897.124 143.108C898.462 143.108 899.634 143.389 900.64 143.952C901.646 144.506 902.425 145.332 902.979 146.432C903.533 147.531 903.81 148.891 903.81 150.51V163H899.988V150.97C899.988 149.547 899.617 148.435 898.876 147.634C898.134 146.824 897.116 146.419 895.82 146.419C894.934 146.419 894.146 146.611 893.455 146.994C892.773 147.378 892.232 147.94 891.832 148.682C891.44 149.415 891.244 150.301 891.244 151.341Z" fill="#FF4A00"/>
</g>
<path d="M324.392 231H321.597L327.878 213.545H330.92L337.202 231H334.406L329.472 216.716H329.335L324.392 231ZM324.861 224.165H333.929V226.381H324.861V224.165ZM344.821 231.264C343.554 231.264 342.463 230.977 341.548 230.403C340.639 229.824 339.94 229.026 339.452 228.009C338.963 226.991 338.719 225.827 338.719 224.514C338.719 223.185 338.969 222.011 339.469 220.994C339.969 219.972 340.673 219.173 341.582 218.599C342.491 218.026 343.563 217.739 344.795 217.739C345.79 217.739 346.676 217.923 347.455 218.293C348.233 218.656 348.861 219.168 349.338 219.827C349.821 220.486 350.108 221.256 350.199 222.136H347.719C347.582 221.523 347.27 220.994 346.781 220.551C346.298 220.108 345.651 219.886 344.838 219.886C344.128 219.886 343.506 220.074 342.972 220.449C342.443 220.818 342.031 221.347 341.736 222.034C341.44 222.716 341.293 223.523 341.293 224.455C341.293 225.409 341.438 226.233 341.727 226.926C342.017 227.619 342.426 228.156 342.955 228.537C343.489 228.918 344.116 229.108 344.838 229.108C345.321 229.108 345.759 229.02 346.151 228.844C346.548 228.662 346.881 228.403 347.148 228.068C347.42 227.733 347.611 227.33 347.719 226.858H350.199C350.108 227.705 349.832 228.46 349.372 229.125C348.912 229.79 348.295 230.312 347.523 230.693C346.756 231.074 345.855 231.264 344.821 231.264ZM358.566 231.264C357.276 231.264 356.165 230.989 355.234 230.438C354.308 229.881 353.592 229.099 353.086 228.094C352.586 227.082 352.336 225.898 352.336 224.54C352.336 223.199 352.586 222.017 353.086 220.994C353.592 219.972 354.296 219.173 355.2 218.599C356.109 218.026 357.171 217.739 358.387 217.739C359.126 217.739 359.842 217.861 360.535 218.105C361.228 218.349 361.85 218.733 362.401 219.256C362.952 219.778 363.387 220.457 363.705 221.293C364.023 222.122 364.183 223.131 364.183 224.318V225.222H353.776V223.312H361.685C361.685 222.642 361.549 222.048 361.276 221.531C361.004 221.009 360.62 220.597 360.126 220.295C359.637 219.994 359.063 219.844 358.404 219.844C357.688 219.844 357.063 220.02 356.529 220.372C356.001 220.719 355.592 221.173 355.302 221.736C355.018 222.293 354.876 222.898 354.876 223.551V225.043C354.876 225.918 355.029 226.662 355.336 227.276C355.648 227.889 356.083 228.358 356.64 228.682C357.197 229 357.847 229.159 358.592 229.159C359.075 229.159 359.515 229.091 359.913 228.955C360.31 228.812 360.654 228.602 360.944 228.324C361.234 228.045 361.455 227.702 361.609 227.293L364.021 227.727C363.827 228.437 363.481 229.06 362.981 229.594C362.487 230.122 361.864 230.534 361.114 230.83C360.37 231.119 359.521 231.264 358.566 231.264ZM372.219 213.545H375.211L379.771 221.48H379.958L384.518 213.545H387.509L381.177 224.148V231H378.552V224.148L372.219 213.545ZM393.149 231.264C391.922 231.264 390.851 230.983 389.936 230.42C389.021 229.858 388.311 229.071 387.805 228.06C387.3 227.048 387.047 225.866 387.047 224.514C387.047 223.156 387.3 221.969 387.805 220.952C388.311 219.935 389.021 219.145 389.936 218.582C390.851 218.02 391.922 217.739 393.149 217.739C394.376 217.739 395.447 218.02 396.362 218.582C397.277 219.145 397.987 219.935 398.493 220.952C398.999 221.969 399.251 223.156 399.251 224.514C399.251 225.866 398.999 227.048 398.493 228.06C397.987 229.071 397.277 229.858 396.362 230.42C395.447 230.983 394.376 231.264 393.149 231.264ZM393.158 229.125C393.953 229.125 394.612 228.915 395.135 228.494C395.658 228.074 396.044 227.514 396.294 226.815C396.55 226.116 396.678 225.347 396.678 224.506C396.678 223.67 396.55 222.903 396.294 222.205C396.044 221.5 395.658 220.935 395.135 220.509C394.612 220.082 393.953 219.869 393.158 219.869C392.357 219.869 391.692 220.082 391.163 220.509C390.641 220.935 390.251 221.5 389.996 222.205C389.746 222.903 389.621 223.67 389.621 224.506C389.621 225.347 389.746 226.116 389.996 226.815C390.251 227.514 390.641 228.074 391.163 228.494C391.692 228.915 392.357 229.125 393.158 229.125ZM410.388 225.571V217.909H412.945V231H410.44V228.733H410.303C410.002 229.432 409.519 230.014 408.854 230.48C408.195 230.94 407.374 231.17 406.391 231.17C405.55 231.17 404.806 230.986 404.158 230.616C403.516 230.241 403.011 229.688 402.641 228.955C402.278 228.222 402.096 227.315 402.096 226.236V217.909H404.644V225.929C404.644 226.821 404.891 227.531 405.386 228.06C405.88 228.588 406.522 228.852 407.312 228.852C407.789 228.852 408.263 228.733 408.735 228.494C409.212 228.256 409.607 227.895 409.92 227.412C410.238 226.929 410.394 226.315 410.388 225.571ZM416.369 231V217.909H418.832V219.989H418.969C419.207 219.284 419.628 218.73 420.23 218.327C420.838 217.918 421.526 217.713 422.293 217.713C422.452 217.713 422.639 217.719 422.855 217.73C423.077 217.741 423.25 217.756 423.375 217.773V220.21C423.273 220.182 423.091 220.151 422.83 220.116C422.568 220.077 422.307 220.057 422.045 220.057C421.443 220.057 420.906 220.185 420.435 220.44C419.969 220.69 419.599 221.04 419.327 221.489C419.054 221.932 418.918 222.437 418.918 223.006V231H416.369ZM446.634 219.222H443.974C443.872 218.653 443.682 218.153 443.403 217.722C443.125 217.29 442.784 216.923 442.381 216.622C441.977 216.321 441.526 216.094 441.026 215.94C440.531 215.787 440.006 215.71 439.449 215.71C438.443 215.71 437.543 215.963 436.747 216.469C435.957 216.974 435.332 217.716 434.872 218.693C434.418 219.67 434.19 220.864 434.19 222.273C434.19 223.693 434.418 224.892 434.872 225.869C435.332 226.847 435.96 227.585 436.756 228.085C437.551 228.585 438.446 228.835 439.44 228.835C439.991 228.835 440.514 228.761 441.009 228.614C441.509 228.46 441.96 228.236 442.364 227.94C442.767 227.645 443.108 227.284 443.386 226.858C443.67 226.426 443.866 225.932 443.974 225.375L446.634 225.384C446.491 226.241 446.216 227.031 445.807 227.753C445.403 228.469 444.884 229.088 444.247 229.611C443.616 230.128 442.895 230.528 442.082 230.812C441.27 231.097 440.384 231.239 439.423 231.239C437.912 231.239 436.565 230.881 435.384 230.165C434.202 229.443 433.27 228.412 432.588 227.071C431.912 225.73 431.574 224.131 431.574 222.273C431.574 220.409 431.915 218.81 432.597 217.474C433.278 216.134 434.21 215.105 435.392 214.389C436.574 213.668 437.918 213.307 439.423 213.307C440.349 213.307 441.213 213.44 442.014 213.707C442.821 213.969 443.545 214.355 444.188 214.866C444.83 215.372 445.361 215.991 445.781 216.724C446.202 217.452 446.486 218.284 446.634 219.222ZM449.785 231V213.545H456.177C457.415 213.545 458.441 213.75 459.254 214.159C460.066 214.562 460.674 215.111 461.077 215.804C461.481 216.491 461.683 217.267 461.683 218.131C461.683 218.858 461.549 219.472 461.282 219.972C461.015 220.466 460.657 220.864 460.208 221.165C459.765 221.46 459.276 221.676 458.742 221.812V221.983C459.322 222.011 459.887 222.199 460.438 222.545C460.995 222.886 461.455 223.372 461.819 224.003C462.183 224.634 462.364 225.401 462.364 226.304C462.364 227.196 462.154 227.997 461.734 228.707C461.319 229.412 460.677 229.972 459.808 230.386C458.938 230.795 457.827 231 456.475 231H449.785ZM452.418 228.741H456.219C457.481 228.741 458.384 228.497 458.93 228.009C459.475 227.52 459.748 226.909 459.748 226.176C459.748 225.625 459.609 225.119 459.33 224.659C459.052 224.199 458.654 223.832 458.137 223.56C457.626 223.287 457.018 223.151 456.313 223.151H452.418V228.741ZM452.418 221.097H455.947C456.538 221.097 457.069 220.983 457.54 220.756C458.018 220.528 458.396 220.21 458.674 219.801C458.958 219.386 459.1 218.898 459.1 218.335C459.1 217.614 458.847 217.009 458.342 216.52C457.836 216.031 457.06 215.787 456.015 215.787H452.418V221.097ZM475.008 218.131C474.917 217.324 474.542 216.699 473.883 216.256C473.224 215.807 472.394 215.582 471.394 215.582C470.678 215.582 470.059 215.696 469.536 215.923C469.013 216.145 468.607 216.452 468.317 216.844C468.033 217.23 467.891 217.67 467.891 218.165C467.891 218.58 467.988 218.937 468.181 219.239C468.38 219.54 468.638 219.793 468.957 219.997C469.281 220.196 469.627 220.364 469.996 220.5C470.366 220.631 470.721 220.739 471.062 220.824L472.766 221.267C473.323 221.403 473.894 221.588 474.479 221.821C475.065 222.054 475.607 222.361 476.107 222.741C476.607 223.122 477.011 223.594 477.317 224.156C477.63 224.719 477.786 225.392 477.786 226.176C477.786 227.165 477.531 228.043 477.019 228.81C476.513 229.577 475.778 230.182 474.812 230.625C473.852 231.068 472.69 231.29 471.326 231.29C470.019 231.29 468.888 231.082 467.934 230.668C466.979 230.253 466.232 229.665 465.692 228.903C465.153 228.136 464.854 227.227 464.798 226.176H467.44C467.491 226.807 467.695 227.332 468.053 227.753C468.417 228.168 468.88 228.477 469.442 228.682C470.011 228.881 470.633 228.98 471.309 228.98C472.053 228.98 472.715 228.864 473.295 228.631C473.88 228.392 474.34 228.062 474.675 227.642C475.011 227.216 475.178 226.719 475.178 226.151C475.178 225.634 475.031 225.21 474.735 224.881C474.445 224.551 474.05 224.278 473.55 224.062C473.056 223.847 472.496 223.656 471.871 223.491L469.809 222.929C468.411 222.548 467.303 221.989 466.485 221.25C465.673 220.511 465.266 219.534 465.266 218.318C465.266 217.312 465.539 216.435 466.085 215.685C466.63 214.935 467.369 214.352 468.3 213.938C469.232 213.517 470.283 213.307 471.454 213.307C472.636 213.307 473.678 213.514 474.582 213.929C475.491 214.344 476.207 214.915 476.729 215.642C477.252 216.364 477.525 217.193 477.548 218.131H475.008ZM480.933 231V213.545H491.876V215.812H483.567V221.131H491.305V223.389H483.567V228.733H491.979V231H480.933ZM501.746 231V213.545H512.689V215.812H504.379V221.131H512.118V223.389H504.379V228.733H512.791V231H501.746ZM518.013 217.909L520.903 223.006L523.817 217.909H526.604L522.522 224.455L526.638 231H523.852L520.903 226.108L517.962 231H515.167L519.241 224.455L515.218 217.909H518.013ZM533.007 231.29C532.178 231.29 531.428 231.136 530.757 230.83C530.087 230.517 529.555 230.065 529.163 229.474C528.777 228.884 528.584 228.159 528.584 227.301C528.584 226.562 528.726 225.955 529.01 225.477C529.294 225 529.678 224.622 530.161 224.344C530.643 224.065 531.183 223.855 531.78 223.713C532.376 223.571 532.984 223.463 533.604 223.389C534.388 223.298 535.024 223.224 535.513 223.168C536.001 223.105 536.357 223.006 536.578 222.869C536.8 222.733 536.911 222.511 536.911 222.205V222.145C536.911 221.401 536.7 220.824 536.28 220.415C535.865 220.006 535.246 219.801 534.422 219.801C533.564 219.801 532.888 219.991 532.393 220.372C531.905 220.747 531.567 221.165 531.379 221.625L528.984 221.08C529.268 220.284 529.683 219.642 530.229 219.153C530.78 218.659 531.413 218.301 532.129 218.08C532.845 217.852 533.598 217.739 534.388 217.739C534.911 217.739 535.464 217.801 536.05 217.926C536.641 218.045 537.192 218.267 537.703 218.591C538.22 218.915 538.643 219.378 538.973 219.98C539.303 220.577 539.467 221.352 539.467 222.307V231H536.979V229.21H536.876C536.712 229.54 536.464 229.864 536.135 230.182C535.805 230.5 535.382 230.764 534.865 230.974C534.348 231.185 533.729 231.29 533.007 231.29ZM533.561 229.244C534.266 229.244 534.868 229.105 535.368 228.827C535.874 228.548 536.257 228.185 536.518 227.736C536.786 227.281 536.919 226.795 536.919 226.278V224.591C536.828 224.682 536.652 224.767 536.391 224.847C536.135 224.92 535.842 224.986 535.513 225.043C535.183 225.094 534.862 225.142 534.55 225.188C534.237 225.227 533.976 225.261 533.766 225.29C533.271 225.352 532.82 225.457 532.411 225.605C532.007 225.753 531.683 225.966 531.439 226.244C531.2 226.517 531.081 226.881 531.081 227.335C531.081 227.966 531.314 228.443 531.78 228.767C532.246 229.085 532.839 229.244 533.561 229.244ZM542.862 231V217.909H545.308V220.04H545.469C545.742 219.318 546.188 218.756 546.808 218.352C547.427 217.943 548.168 217.739 549.032 217.739C549.907 217.739 550.64 217.943 551.231 218.352C551.827 218.761 552.268 219.324 552.552 220.04H552.688C553.001 219.341 553.498 218.784 554.18 218.369C554.862 217.949 555.674 217.739 556.617 217.739C557.805 217.739 558.773 218.111 559.523 218.855C560.279 219.599 560.657 220.722 560.657 222.222V231H558.109V222.46C558.109 221.574 557.867 220.932 557.384 220.534C556.901 220.136 556.325 219.938 555.654 219.938C554.825 219.938 554.18 220.193 553.719 220.705C553.259 221.21 553.029 221.861 553.029 222.656V231H550.489V222.298C550.489 221.588 550.268 221.017 549.825 220.585C549.381 220.153 548.805 219.938 548.094 219.938C547.612 219.938 547.165 220.065 546.756 220.321C546.353 220.571 546.026 220.92 545.776 221.369C545.532 221.818 545.41 222.338 545.41 222.929V231H542.862ZM573.882 221.105L571.572 221.514C571.476 221.219 571.322 220.937 571.112 220.67C570.908 220.403 570.629 220.185 570.277 220.014C569.925 219.844 569.484 219.759 568.956 219.759C568.234 219.759 567.632 219.92 567.149 220.244C566.666 220.562 566.425 220.974 566.425 221.48C566.425 221.918 566.587 222.27 566.911 222.537C567.234 222.804 567.757 223.023 568.479 223.193L570.558 223.67C571.763 223.949 572.661 224.378 573.251 224.957C573.842 225.537 574.138 226.29 574.138 227.216C574.138 228 573.911 228.699 573.456 229.312C573.007 229.92 572.379 230.398 571.572 230.744C570.771 231.091 569.842 231.264 568.786 231.264C567.32 231.264 566.124 230.952 565.197 230.327C564.271 229.696 563.703 228.801 563.493 227.642L565.956 227.267C566.109 227.909 566.425 228.395 566.902 228.724C567.379 229.048 568.001 229.21 568.768 229.21C569.604 229.21 570.271 229.037 570.771 228.69C571.271 228.338 571.521 227.909 571.521 227.403C571.521 226.994 571.368 226.651 571.061 226.372C570.76 226.094 570.297 225.884 569.672 225.741L567.456 225.256C566.234 224.977 565.331 224.534 564.746 223.926C564.166 223.318 563.876 222.548 563.876 221.616C563.876 220.844 564.092 220.168 564.524 219.588C564.956 219.009 565.553 218.557 566.314 218.233C567.075 217.903 567.947 217.739 568.93 217.739C570.345 217.739 571.459 218.045 572.271 218.659C573.084 219.267 573.621 220.082 573.882 221.105ZM586.129 231L582.277 217.909H584.911L587.476 227.523H587.604L590.178 217.909H592.811L595.368 227.48H595.496L598.044 217.909H600.678L596.834 231H594.234L591.575 221.548H591.379L588.72 231H586.129ZM603.096 231V217.909H605.644V231H603.096ZM604.383 215.889C603.94 215.889 603.559 215.741 603.241 215.446C602.928 215.145 602.772 214.787 602.772 214.372C602.772 213.952 602.928 213.594 603.241 213.298C603.559 212.997 603.94 212.847 604.383 212.847C604.826 212.847 605.204 212.997 605.516 213.298C605.835 213.594 605.994 213.952 605.994 214.372C605.994 214.787 605.835 215.145 605.516 215.446C605.204 215.741 604.826 215.889 604.383 215.889ZM615.183 217.909V219.955H608.033V217.909H615.183ZM609.95 214.773H612.499V227.156C612.499 227.651 612.572 228.023 612.72 228.273C612.868 228.517 613.058 228.685 613.291 228.776C613.53 228.861 613.788 228.903 614.067 228.903C614.271 228.903 614.45 228.889 614.604 228.861C614.757 228.832 614.876 228.81 614.962 228.793L615.422 230.898C615.274 230.955 615.064 231.011 614.791 231.068C614.518 231.131 614.178 231.165 613.768 231.17C613.098 231.182 612.473 231.062 611.893 230.812C611.314 230.562 610.845 230.176 610.487 229.653C610.129 229.131 609.95 228.474 609.95 227.685V214.773ZM620.832 223.227V231H618.283V213.545H620.798V220.04H620.96C621.266 219.335 621.735 218.776 622.366 218.361C622.996 217.946 623.82 217.739 624.837 217.739C625.735 217.739 626.519 217.923 627.19 218.293C627.866 218.662 628.388 219.213 628.758 219.946C629.133 220.673 629.32 221.582 629.32 222.673V231H626.772V222.98C626.772 222.02 626.525 221.276 626.031 220.747C625.536 220.213 624.849 219.946 623.968 219.946C623.366 219.946 622.826 220.074 622.349 220.33C621.877 220.585 621.505 220.96 621.232 221.455C620.965 221.943 620.832 222.534 620.832 223.227ZM640.751 231H637.956L644.237 213.545H647.28L653.561 231H650.766L645.831 216.716H645.695L640.751 231ZM641.22 224.165H650.288V226.381H641.22V224.165ZM658.715 213.545V231H656.082V213.545H658.715ZM670.059 221.165V223.381H662.32V221.165H670.059ZM673.66 231V213.545H679.881C681.239 213.545 682.364 213.793 683.256 214.287C684.148 214.781 684.816 215.457 685.259 216.315C685.702 217.168 685.924 218.128 685.924 219.196C685.924 220.27 685.7 221.236 685.251 222.094C684.808 222.946 684.137 223.622 683.239 224.122C682.347 224.616 681.225 224.864 679.873 224.864H675.594V222.631H679.634C680.492 222.631 681.188 222.483 681.722 222.188C682.256 221.886 682.648 221.477 682.898 220.96C683.148 220.443 683.273 219.855 683.273 219.196C683.273 218.537 683.148 217.952 682.898 217.44C682.648 216.929 682.254 216.528 681.714 216.239C681.18 215.949 680.475 215.804 679.6 215.804H676.293V231H673.66ZM694.157 231.264C692.93 231.264 691.859 230.983 690.944 230.42C690.029 229.858 689.319 229.071 688.813 228.06C688.308 227.048 688.055 225.866 688.055 224.514C688.055 223.156 688.308 221.969 688.813 220.952C689.319 219.935 690.029 219.145 690.944 218.582C691.859 218.02 692.93 217.739 694.157 217.739C695.384 217.739 696.455 218.02 697.37 218.582C698.285 219.145 698.995 219.935 699.501 220.952C700.006 221.969 700.259 223.156 700.259 224.514C700.259 225.866 700.006 227.048 699.501 228.06C698.995 229.071 698.285 229.858 697.37 230.42C696.455 230.983 695.384 231.264 694.157 231.264ZM694.165 229.125C694.961 229.125 695.62 228.915 696.143 228.494C696.665 228.074 697.052 227.514 697.302 226.815C697.558 226.116 697.685 225.347 697.685 224.506C697.685 223.67 697.558 222.903 697.302 222.205C697.052 221.5 696.665 220.935 696.143 220.509C695.62 220.082 694.961 219.869 694.165 219.869C693.364 219.869 692.7 220.082 692.171 220.509C691.648 220.935 691.259 221.5 691.004 222.205C690.754 222.903 690.629 223.67 690.629 224.506C690.629 225.347 690.754 226.116 691.004 226.815C691.259 227.514 691.648 228.074 692.171 228.494C692.7 228.915 693.364 229.125 694.165 229.125ZM705.543 231L701.691 217.909H704.325L706.89 227.523H707.018L709.592 217.909H712.225L714.782 227.48H714.91L717.458 217.909H720.092L716.248 231H713.648L710.989 221.548H710.793L708.134 231H705.543ZM727.754 231.264C726.464 231.264 725.353 230.989 724.421 230.438C723.495 229.881 722.779 229.099 722.273 228.094C721.773 227.082 721.523 225.898 721.523 224.54C721.523 223.199 721.773 222.017 722.273 220.994C722.779 219.972 723.484 219.173 724.387 218.599C725.296 218.026 726.359 217.739 727.575 217.739C728.313 217.739 729.029 217.861 729.722 218.105C730.415 218.349 731.038 218.733 731.589 219.256C732.14 219.778 732.575 220.457 732.893 221.293C733.211 222.122 733.37 223.131 733.37 224.318V225.222H722.964V223.312H730.873C730.873 222.642 730.737 222.048 730.464 221.531C730.191 221.009 729.808 220.597 729.313 220.295C728.825 219.994 728.251 219.844 727.592 219.844C726.876 219.844 726.251 220.02 725.717 220.372C725.188 220.719 724.779 221.173 724.489 221.736C724.205 222.293 724.063 222.898 724.063 223.551V225.043C724.063 225.918 724.217 226.662 724.523 227.276C724.836 227.889 725.271 228.358 725.827 228.682C726.384 229 727.035 229.159 727.779 229.159C728.262 229.159 728.702 229.091 729.1 228.955C729.498 228.812 729.842 228.602 730.131 228.324C730.421 228.045 730.643 227.702 730.796 227.293L733.208 227.727C733.015 228.437 732.668 229.06 732.168 229.594C731.674 230.122 731.052 230.534 730.302 230.83C729.558 231.119 728.708 231.264 727.754 231.264ZM736.197 231V217.909H738.661V219.989H738.797C739.036 219.284 739.456 218.73 740.058 218.327C740.666 217.918 741.354 217.713 742.121 217.713C742.28 217.713 742.467 217.719 742.683 217.73C742.905 217.741 743.078 217.756 743.203 217.773V220.21C743.101 220.182 742.919 220.151 742.658 220.116C742.396 220.077 742.135 220.057 741.874 220.057C741.271 220.057 740.734 220.185 740.263 220.44C739.797 220.69 739.428 221.04 739.155 221.489C738.882 221.932 738.746 222.437 738.746 223.006V231H736.197ZM750.582 231.264C749.292 231.264 748.181 230.989 747.249 230.438C746.323 229.881 745.607 229.099 745.102 228.094C744.602 227.082 744.352 225.898 744.352 224.54C744.352 223.199 744.602 222.017 745.102 220.994C745.607 219.972 746.312 219.173 747.215 218.599C748.124 218.026 749.187 217.739 750.403 217.739C751.141 217.739 751.857 217.861 752.55 218.105C753.244 218.349 753.866 218.733 754.417 219.256C754.968 219.778 755.403 220.457 755.721 221.293C756.039 222.122 756.198 223.131 756.198 224.318V225.222H745.792V223.312H753.701C753.701 222.642 753.565 222.048 753.292 221.531C753.019 221.009 752.636 220.597 752.141 220.295C751.653 219.994 751.079 219.844 750.42 219.844C749.704 219.844 749.079 220.02 748.545 220.372C748.016 220.719 747.607 221.173 747.317 221.736C747.033 222.293 746.891 222.898 746.891 223.551V225.043C746.891 225.918 747.045 226.662 747.352 227.276C747.664 227.889 748.099 228.358 748.656 228.682C749.212 229 749.863 229.159 750.607 229.159C751.09 229.159 751.531 229.091 751.928 228.955C752.326 228.812 752.67 228.602 752.96 228.324C753.249 228.045 753.471 227.702 753.624 227.293L756.036 227.727C755.843 228.437 755.496 229.06 754.996 229.594C754.502 230.122 753.88 230.534 753.13 230.83C752.386 231.119 751.536 231.264 750.582 231.264ZM763.926 231.256C762.869 231.256 761.926 230.986 761.097 230.446C760.273 229.901 759.625 229.125 759.153 228.119C758.688 227.108 758.455 225.895 758.455 224.48C758.455 223.065 758.69 221.855 759.162 220.849C759.639 219.844 760.293 219.074 761.122 218.54C761.952 218.006 762.892 217.739 763.943 217.739C764.756 217.739 765.409 217.875 765.903 218.148C766.403 218.415 766.79 218.727 767.062 219.085C767.341 219.443 767.557 219.759 767.71 220.031H767.864V213.545H770.412V231H767.923V228.963H767.71C767.557 229.241 767.335 229.56 767.045 229.918C766.761 230.276 766.369 230.588 765.869 230.855C765.369 231.122 764.722 231.256 763.926 231.256ZM764.489 229.082C765.222 229.082 765.841 228.889 766.347 228.503C766.858 228.111 767.244 227.568 767.506 226.875C767.773 226.182 767.906 225.375 767.906 224.455C767.906 223.545 767.776 222.75 767.514 222.068C767.253 221.386 766.869 220.855 766.364 220.474C765.858 220.094 765.233 219.903 764.489 219.903C763.722 219.903 763.082 220.102 762.571 220.5C762.06 220.898 761.673 221.44 761.412 222.128C761.156 222.815 761.028 223.591 761.028 224.455C761.028 225.33 761.159 226.116 761.42 226.815C761.682 227.514 762.068 228.068 762.58 228.477C763.097 228.881 763.733 229.082 764.489 229.082ZM780.605 231V213.545H786.827C788.185 213.545 789.31 213.793 790.202 214.287C791.094 214.781 791.761 215.457 792.205 216.315C792.648 217.168 792.869 218.128 792.869 219.196C792.869 220.27 792.645 221.236 792.196 222.094C791.753 222.946 791.082 223.622 790.185 224.122C789.293 224.616 788.17 224.864 786.818 224.864H782.54V222.631H786.58C787.438 222.631 788.134 222.483 788.668 222.188C789.202 221.886 789.594 221.477 789.844 220.96C790.094 220.443 790.219 219.855 790.219 219.196C790.219 218.537 790.094 217.952 789.844 217.44C789.594 216.929 789.199 216.528 788.659 216.239C788.125 215.949 787.42 215.804 786.545 215.804H783.239V231H780.605ZM795.752 231V217.909H798.215V219.989H798.352C798.59 219.284 799.011 218.73 799.613 218.327C800.221 217.918 800.908 217.713 801.675 217.713C801.835 217.713 802.022 217.719 802.238 217.73C802.46 217.741 802.633 217.756 802.758 217.773V220.21C802.656 220.182 802.474 220.151 802.212 220.116C801.951 220.077 801.69 220.057 801.428 220.057C800.826 220.057 800.289 220.185 799.817 220.44C799.352 220.69 798.982 221.04 798.71 221.489C798.437 221.932 798.3 222.437 798.3 223.006V231H795.752ZM808.656 231.29C807.826 231.29 807.076 231.136 806.406 230.83C805.735 230.517 805.204 230.065 804.812 229.474C804.425 228.884 804.232 228.159 804.232 227.301C804.232 226.562 804.374 225.955 804.658 225.477C804.942 225 805.326 224.622 805.809 224.344C806.292 224.065 806.832 223.855 807.428 223.713C808.025 223.571 808.633 223.463 809.252 223.389C810.036 223.298 810.673 223.224 811.161 223.168C811.65 223.105 812.005 223.006 812.227 222.869C812.448 222.733 812.559 222.511 812.559 222.205V222.145C812.559 221.401 812.349 220.824 811.928 220.415C811.513 220.006 810.894 219.801 810.07 219.801C809.212 219.801 808.536 219.991 808.042 220.372C807.553 220.747 807.215 221.165 807.028 221.625L804.633 221.08C804.917 220.284 805.332 219.642 805.877 219.153C806.428 218.659 807.062 218.301 807.778 218.08C808.494 217.852 809.246 217.739 810.036 217.739C810.559 217.739 811.113 217.801 811.698 217.926C812.289 218.045 812.84 218.267 813.352 218.591C813.869 218.915 814.292 219.378 814.621 219.98C814.951 220.577 815.116 221.352 815.116 222.307V231H812.627V229.21H812.525C812.36 229.54 812.113 229.864 811.783 230.182C811.454 230.5 811.031 230.764 810.513 230.974C809.996 231.185 809.377 231.29 808.656 231.29ZM809.21 229.244C809.914 229.244 810.516 229.105 811.016 228.827C811.522 228.548 811.906 228.185 812.167 227.736C812.434 227.281 812.567 226.795 812.567 226.278V224.591C812.477 224.682 812.3 224.767 812.039 224.847C811.783 224.92 811.491 224.986 811.161 225.043C810.832 225.094 810.511 225.142 810.198 225.188C809.886 225.227 809.624 225.261 809.414 225.29C808.92 225.352 808.468 225.457 808.059 225.605C807.656 225.753 807.332 225.966 807.087 226.244C806.849 226.517 806.729 226.881 806.729 227.335C806.729 227.966 806.962 228.443 807.428 228.767C807.894 229.085 808.488 229.244 809.21 229.244ZM824.024 231.264C822.757 231.264 821.666 230.977 820.751 230.403C819.842 229.824 819.143 229.026 818.655 228.009C818.166 226.991 817.922 225.827 817.922 224.514C817.922 223.185 818.172 222.011 818.672 220.994C819.172 219.972 819.876 219.173 820.786 218.599C821.695 218.026 822.766 217.739 823.999 217.739C824.993 217.739 825.879 217.923 826.658 218.293C827.436 218.656 828.064 219.168 828.541 219.827C829.024 220.486 829.311 221.256 829.402 222.136H826.922C826.786 221.523 826.473 220.994 825.984 220.551C825.501 220.108 824.854 219.886 824.041 219.886C823.331 219.886 822.709 220.074 822.175 220.449C821.646 220.818 821.234 221.347 820.939 222.034C820.643 222.716 820.496 223.523 820.496 224.455C820.496 225.409 820.641 226.233 820.93 226.926C821.22 227.619 821.629 228.156 822.158 228.537C822.692 228.918 823.32 229.108 824.041 229.108C824.524 229.108 824.962 229.02 825.354 228.844C825.751 228.662 826.084 228.403 826.351 228.068C826.624 227.733 826.814 227.33 826.922 226.858H829.402C829.311 227.705 829.036 228.46 828.575 229.125C828.115 229.79 827.499 230.312 826.726 230.693C825.959 231.074 825.058 231.264 824.024 231.264ZM838.238 217.909V219.955H831.087V217.909H838.238ZM833.005 214.773H835.553V227.156C835.553 227.651 835.627 228.023 835.775 228.273C835.923 228.517 836.113 228.685 836.346 228.776C836.585 228.861 836.843 228.903 837.121 228.903C837.326 228.903 837.505 228.889 837.658 228.861C837.812 228.832 837.931 228.81 838.016 228.793L838.477 230.898C838.329 230.955 838.119 231.011 837.846 231.068C837.573 231.131 837.232 231.165 836.823 231.17C836.153 231.182 835.528 231.062 834.948 230.812C834.369 230.562 833.9 230.176 833.542 229.653C833.184 229.131 833.005 228.474 833.005 227.685V214.773ZM841.057 231V217.909H843.605V231H841.057ZM842.344 215.889C841.901 215.889 841.52 215.741 841.202 215.446C840.889 215.145 840.733 214.787 840.733 214.372C840.733 213.952 840.889 213.594 841.202 213.298C841.52 212.997 841.901 212.847 842.344 212.847C842.787 212.847 843.165 212.997 843.477 213.298C843.795 213.594 843.955 213.952 843.955 214.372C843.955 214.787 843.795 215.145 843.477 215.446C843.165 215.741 842.787 215.889 842.344 215.889ZM852.548 231.264C851.281 231.264 850.19 230.977 849.275 230.403C848.366 229.824 847.667 229.026 847.178 228.009C846.69 226.991 846.445 225.827 846.445 224.514C846.445 223.185 846.695 222.011 847.195 220.994C847.695 219.972 848.4 219.173 849.309 218.599C850.218 218.026 851.289 217.739 852.522 217.739C853.516 217.739 854.403 217.923 855.181 218.293C855.96 218.656 856.587 219.168 857.065 219.827C857.548 220.486 857.835 221.256 857.925 222.136H855.445C855.309 221.523 854.996 220.994 854.508 220.551C854.025 220.108 853.377 219.886 852.565 219.886C851.854 219.886 851.232 220.074 850.698 220.449C850.17 220.818 849.758 221.347 849.462 222.034C849.167 222.716 849.019 223.523 849.019 224.455C849.019 225.409 849.164 226.233 849.454 226.926C849.744 227.619 850.153 228.156 850.681 228.537C851.215 228.918 851.843 229.108 852.565 229.108C853.048 229.108 853.485 229.02 853.877 228.844C854.275 228.662 854.607 228.403 854.874 228.068C855.147 227.733 855.337 227.33 855.445 226.858H857.925C857.835 227.705 857.559 228.46 857.099 229.125C856.638 229.79 856.022 230.312 855.249 230.693C854.482 231.074 853.582 231.264 852.548 231.264ZM866.293 231.264C865.003 231.264 863.892 230.989 862.96 230.438C862.034 229.881 861.318 229.099 860.812 228.094C860.312 227.082 860.062 225.898 860.062 224.54C860.062 223.199 860.312 222.017 860.812 220.994C861.318 219.972 862.023 219.173 862.926 218.599C863.835 218.026 864.898 217.739 866.114 217.739C866.852 217.739 867.568 217.861 868.261 218.105C868.955 218.349 869.577 218.733 870.128 219.256C870.679 219.778 871.114 220.457 871.432 221.293C871.75 222.122 871.909 223.131 871.909 224.318V225.222H861.503V223.312H869.412C869.412 222.642 869.276 222.048 869.003 221.531C868.73 221.009 868.347 220.597 867.852 220.295C867.364 219.994 866.79 219.844 866.131 219.844C865.415 219.844 864.79 220.02 864.256 220.372C863.727 220.719 863.318 221.173 863.028 221.736C862.744 222.293 862.602 222.898 862.602 223.551V225.043C862.602 225.918 862.756 226.662 863.062 227.276C863.375 227.889 863.81 228.358 864.366 228.682C864.923 229 865.574 229.159 866.318 229.159C866.801 229.159 867.241 229.091 867.639 228.955C868.037 228.812 868.381 228.602 868.67 228.324C868.96 228.045 869.182 227.702 869.335 227.293L871.747 227.727C871.554 228.437 871.207 229.06 870.707 229.594C870.213 230.122 869.591 230.534 868.841 230.83C868.097 231.119 867.247 231.264 866.293 231.264Z" fill="black"/>
<defs>
<filter id="filter0_d_2017_12" x="478.976" y="32.8823" width="241.023" height="48.0938" filterUnits="userSpaceOnUse" color-interpolation-filters="sRGB">
<feFlood flood-opacity="0" result="BackgroundImageFix"/>
<feColorMatrix in="SourceAlpha" type="matrix" values="0 0 0 0 0 0 0 0 0 0 0 0 0 0 0 0 0 0 127 0" result="hardAlpha"/>
<feOffset dy="4"/>
<feGaussianBlur stdDeviation="2"/>
<feComposite in2="hardAlpha" operator="out"/>
<feColorMatrix type="matrix" values="0 0 0 0 0 0 0 0 0 0 0 0 0 0 0 0 0 0 0.25 0"/>
<feBlend mode="normal" in2="BackgroundImageFix" result="effect1_dropShadow_2017_12"/>
<feBlend mode="normal" in="SourceGraphic" in2="effect1_dropShadow_2017_12" result="shape"/>
</filter>
<filter id="filter1_d_2017_12" x="309.857" y="135.77" width="597.954" height="42.5938" filterUnits="userSpaceOnUse" color-interpolation-filters="sRGB">
<feFlood flood-opacity="0" result="BackgroundImageFix"/>
<feColorMatrix in="SourceAlpha" type="matrix" values="0 0 0 0 0 0 0 0 0 0 0 0 0 0 0 0 0 0 127 0" result="hardAlpha"/>
<feOffset dy="4"/>
<feGaussianBlur stdDeviation="2"/>
<feComposite in2="hardAlpha" operator="out"/>
<feColorMatrix type="matrix" values="0 0 0 0 0 0 0 0 0 0 0 0 0 0 0 0 0 0 0.25 0"/>
<feBlend mode="normal" in2="BackgroundImageFix" result="effect1_dropShadow_2017_12"/>
<feBlend mode="normal" in="SourceGraphic" in2="effect1_dropShadow_2017_12" result="shape"/>
</filter>
<clipPath id="clip0_2017_12">
<rect width="233" height="40" fill="white" transform="translate(483 33)"/>
</clipPath>
</defs>
</svg>
